<?xml version="1.0" encoding="UTF-8" standalone="no"?>
<svg width="900" height="400" viewBox="0 0 900 400" xmlns="http://www.w3.org/2000/svg">
<defs>
<marker id="arrowhead-7f8c8d" markerWidth="10" markerHeight="7" refX="9" refY="3.5" orient="auto"><polygon points="0 0, 10 3.5, 0 7" fill="#7f8c8d" /></marker>
</defs>
<rect x="0" y="0" width="900" height="400" fill="white" stroke="none" stroke-width="1" rx="0" ry="0" opacity="1.0" />
<rect x="50" y="110.0" width="140" height="180" fill="white" stroke="#34495e" stroke-width="2" rx="5" ry="5" opacity="1.0" />
<rect x="50" y="110.0" width="140" height="40" fill="#34495e" stroke="none" stroke-width="1" rx="5" ry="5" opacity="1.0" />
<rect x="50" y="140.0" width="140" height="10" fill="#34495e" stroke="none" stroke-width="1" rx="0" ry="0" opacity="1.0" />
<text x="120.0" y="135.0" dy="0" font-family="Arial, sans-serif" font-size="12" fill="white" text-anchor="middle" font-weight="bold">INGEST</text>
<text x="60" y="170.0" dy="0" font-family="Arial, sans-serif" font-size="11" fill="#333" text-anchor="start" font-weight="normal">• Sprinklr API</text>
<text x="60" y="200.0" dy="0" font-family="Arial, sans-serif" font-size="11" fill="#333" text-anchor="start" font-weight="normal">• SAP Extracts</text>
<text x="60" y="230.0" dy="0" font-family="Arial, sans-serif" font-size="11" fill="#333" text-anchor="start" font-weight="normal">• Flat Files</text>
<line x1="195" y1="200" x2="225" y2="200" stroke="#7f8c8d" stroke-width="2" marker-end="url(#arrowhead-7f8c8d)" />
<rect x="230" y="110.0" width="140" height="180" fill="white" stroke="#2980b9" stroke-width="2" rx="5" ry="5" opacity="1.0" />
<rect x="230" y="110.0" width="140" height="40" fill="#2980b9" stroke="none" stroke-width="1" rx="5" ry="5" opacity="1.0" />
<rect x="230" y="140.0" width="140" height="10" fill="#2980b9" stroke="none" stroke-width="1" rx="0" ry="0" opacity="1.0" />
<text x="300.0" y="135.0" dy="0" font-family="Arial, sans-serif" font-size="12" fill="white" text-anchor="middle" font-weight="bold">REFINE</text>
<text x="240" y="170.0" dy="0" font-family="Arial, sans-serif" font-size="11" fill="#333" text-anchor="start" font-weight="normal">• Cleanse (SQL)</text>
<text x="240" y="200.0" dy="0" font-family="Arial, sans-serif" font-size="11" fill="#333" text-anchor="start" font-weight="normal">• Normalize</text>
<text x="240" y="230.0" dy="0" font-family="Arial, sans-serif" font-size="11" fill="#333" text-anchor="start" font-weight="normal">• V_MMM_INPUT</text>
<line x1="375" y1="200" x2="405" y2="200" stroke="#7f8c8d" stroke-width="2" marker-end="url(#arrowhead-7f8c8d)" />
<rect x="410" y="110.0" width="140" height="180" fill="white" stroke="#8e44ad" stroke-width="2" rx="5" ry="5" opacity="1.0" />
<rect x="410" y="110.0" width="140" height="40" fill="#8e44ad" stroke="none" stroke-width="1" rx="5" ry="5" opacity="1.0" />
<rect x="410" y="140.0" width="140" height="10" fill="#8e44ad" stroke="none" stroke-width="1" rx="0" ry="0" opacity="1.0" />
<text x="480.0" y="135.0" dy="0" font-family="Arial, sans-serif" font-size="12" fill="white" text-anchor="middle" font-weight="bold">MODEL</text>
<text x="420" y="170.0" dy="0" font-family="Arial, sans-serif" font-size="11" fill="#333" text-anchor="start" font-weight="normal">• Snowpark Python</text>
<text x="420" y="200.0" dy="0" font-family="Arial, sans-serif" font-size="11" fill="#333" text-anchor="start" font-weight="normal">• Adstock/Hill</text>
<text x="420" y="230.0" dy="0" font-family="Arial, sans-serif" font-size="11" fill="#333" text-anchor="start" font-weight="normal">• Ridge Regression</text>
<line x1="555" y1="200" x2="585" y2="200" stroke="#7f8c8d" stroke-width="2" marker-end="url(#arrowhead-7f8c8d)" />
<rect x="590" y="110.0" width="140" height="180" fill="white" stroke="#27ae60" stroke-width="2" rx="5" ry="5" opacity="1.0" />
<rect x="590" y="110.0" width="140" height="40" fill="#27ae60" stroke="none" stroke-width="1" rx="5" ry="5" opacity="1.0" />
<rect x="590" y="140.0" width="140" height="10" fill="#27ae60" stroke="none" stroke-width="1" rx="0" ry="0" opacity="1.0" />
<text x="660.0" y="135.0" dy="0" font-family="Arial, sans-serif" font-size="12" fill="white" text-anchor="middle" font-weight="bold">SERVE</text>
<text x="600" y="170.0" dy="0" font-family="Arial, sans-serif" font-size="11" fill="#333" text-anchor="start" font-weight="normal">• Streamlit App</text>
<text x="600" y="200.0" dy="0" font-family="Arial, sans-serif" font-size="11" fill="#333" text-anchor="start" font-weight="normal">• Interactive Charts</text>
<text x="600" y="230.0" dy="0" font-family="Arial, sans-serif" font-size="11" fill="#333" text-anchor="start" font-weight="normal">• Scenario Input</text>
<line x1="735" y1="200" x2="765" y2="200" stroke="#7f8c8d" stroke-width="2" marker-end="url(#arrowhead-7f8c8d)" />
<rect x="770" y="110.0" width="140" height="180" fill="white" stroke="#e67e22" stroke-width="2" rx="5" ry="5" opacity="1.0" />
<rect x="770" y="110.0" width="140" height="40" fill="#e67e22" stroke="none" stroke-width="1" rx="5" ry="5" opacity="1.0" />
<rect x="770" y="140.0" width="140" height="10" fill="#e67e22" stroke="none" stroke-width="1" rx="0" ry="0" opacity="1.0" />
<text x="840.0" y="135.0" dy="0" font-family="Arial, sans-serif" font-size="12" fill="white" text-anchor="middle" font-weight="bold">ASK</text>
<text x="780" y="170.0" dy="0" font-family="Arial, sans-serif" font-size="11" fill="#333" text-anchor="start" font-weight="normal">• Cortex Analyst</text>
<text x="780" y="200.0" dy="0" font-family="Arial, sans-serif" font-size="11" fill="#333" text-anchor="start" font-weight="normal">• Natural Language</text>
<text x="780" y="230.0" dy="0" font-family="Arial, sans-serif" font-size="11" fill="#333" text-anchor="start" font-weight="normal">• GenAI Insights</text>
</svg>