<?xml version="1.0" encoding="UTF-8" standalone="no"?>
<svg width="800" height="500" viewBox="0 0 800 500" xmlns="http://www.w3.org/2000/svg">
<defs>
<marker id="arrowhead-27ae60" markerWidth="10" markerHeight="7" refX="9" refY="3.5" orient="auto"><polygon points="0 0, 10 3.5, 0 7" fill="#27ae60" /></marker>
</defs>
<rect x="0" y="0" width="800" height="500" fill="#f0f2f5" stroke="#bdc3c7" stroke-width="1" rx="0" ry="0" opacity="1.0" />
<rect x="0" y="0" width="250" height="500" fill="white" stroke="#ddd" stroke-width="1" rx="0" ry="0" opacity="1.0" />
<text x="20" y="40" dy="0" font-family="Arial, sans-serif" font-size="16" fill="black" text-anchor="start" font-weight="bold">Budget Allocation</text>
<text x="20" y="80" dy="0" font-family="Arial, sans-serif" font-size="12" fill="black" text-anchor="start" font-weight="bold">LinkedIn</text>
<line x1="20" y1="100" x2="220" y2="100" stroke="#ccc" stroke-width="4" stroke-dasharray="none" />
<circle cx="90" cy="100" r="8" fill="#3498db" stroke="none" stroke-width="1" />
<text x="220" y="80" dy="0" font-family="Arial, sans-serif" font-size="10" fill="#555" text-anchor="end" font-weight="normal">-9%</text>
<text x="20" y="150" dy="0" font-family="Arial, sans-serif" font-size="12" fill="black" text-anchor="start" font-weight="bold">Paid Search</text>
<line x1="20" y1="170" x2="220" y2="170" stroke="#ccc" stroke-width="4" stroke-dasharray="none" />
<circle cx="120" cy="170" r="8" fill="#3498db" stroke="none" stroke-width="1" />
<text x="220" y="150" dy="0" font-family="Arial, sans-serif" font-size="10" fill="#555" text-anchor="end" font-weight="normal">Current</text>
<text x="20" y="220" dy="0" font-family="Arial, sans-serif" font-size="12" fill="black" text-anchor="start" font-weight="bold">Display</text>
<line x1="20" y1="240" x2="220" y2="240" stroke="#ccc" stroke-width="4" stroke-dasharray="none" />
<circle cx="150" cy="240" r="8" fill="#3498db" stroke="none" stroke-width="1" />
<text x="220" y="220" dy="0" font-family="Arial, sans-serif" font-size="10" fill="#555" text-anchor="end" font-weight="normal">+9%</text>
<text x="20" y="290" dy="0" font-family="Arial, sans-serif" font-size="12" fill="black" text-anchor="start" font-weight="bold">Industry Events</text>
<line x1="20" y1="310" x2="220" y2="310" stroke="#ccc" stroke-width="4" stroke-dasharray="none" />
<circle cx="90" cy="310" r="8" fill="#3498db" stroke="none" stroke-width="1" />
<text x="220" y="290" dy="0" font-family="Arial, sans-serif" font-size="10" fill="#555" text-anchor="end" font-weight="normal">-9%</text>
<text x="20" y="360" dy="0" font-family="Arial, sans-serif" font-size="12" fill="black" text-anchor="start" font-weight="bold">Email</text>
<line x1="20" y1="380" x2="220" y2="380" stroke="#ccc" stroke-width="4" stroke-dasharray="none" />
<circle cx="120" cy="380" r="8" fill="#3498db" stroke="none" stroke-width="1" />
<text x="220" y="360" dy="0" font-family="Arial, sans-serif" font-size="10" fill="#555" text-anchor="end" font-weight="normal">Current</text>
<text x="280" y="40" dy="0" font-family="Arial, sans-serif" font-size="16" fill="black" text-anchor="start" font-weight="bold">Predicted Outcomes</text>
<rect x="280" y="70" width="200" height="100" fill="white" stroke="#ddd" stroke-width="1" rx="5" ry="0" opacity="1.0" />
<text x="300" y="100" dy="0" font-family="Arial, sans-serif" font-size="12" fill="#777" text-anchor="start" font-weight="normal">Projected Revenue</text>
<text x="300" y="140" dy="0" font-family="Arial, sans-serif" font-size="28" fill="#27ae60" text-anchor="start" font-weight="bold">$68.2M</text>
<text x="420" y="140" dy="0" font-family="Arial, sans-serif" font-size="14" fill="#27ae60" text-anchor="start" font-weight="normal">+$3.4M</text>
<rect x="500" y="70" width="200" height="100" fill="white" stroke="#ddd" stroke-width="1" rx="5" ry="0" opacity="1.0" />
<text x="520" y="100" dy="0" font-family="Arial, sans-serif" font-size="12" fill="#777" text-anchor="start" font-weight="normal">Overall ROAS</text>
<text x="520" y="140" dy="0" font-family="Arial, sans-serif" font-size="28" fill="#2980b9" text-anchor="start" font-weight="bold">5.8x</text>
<text x="640" y="140" dy="0" font-family="Arial, sans-serif" font-size="14" fill="#2980b9" text-anchor="start" font-weight="normal">+0.6x</text>
<rect x="280" y="200" width="480" height="250" fill="white" stroke="#ddd" stroke-width="1" rx="5" ry="0" opacity="1.0" />
<text x="300" y="230" dy="0" font-family="Arial, sans-serif" font-size="12" fill="black" text-anchor="start" font-weight="bold">Allocation Shift</text>
<text x="320" y="430" dy="0" font-family="Arial, sans-serif" font-size="12" fill="black" text-anchor="middle" font-weight="normal">Current</text>
<rect x="290" y="250" width="60" height="150" fill="#bdc3c7" stroke="black" stroke-width="1" rx="0" ry="0" opacity="1.0" />
<text x="450" y="430" dy="0" font-family="Arial, sans-serif" font-size="12" fill="black" text-anchor="middle" font-weight="normal">Proposed</text>
<rect x="420" y="230" width="60" height="170" fill="#3498db" stroke="black" stroke-width="1" rx="0" ry="0" opacity="1.0" />
<line x1="360" y1="320" x2="410" y2="310" stroke="#27ae60" stroke-width="2" marker-end="url(#arrowhead-27ae60)" />
</svg>