<?xml version="1.0" encoding="UTF-8" standalone="no"?>
<svg width="800" height="500" viewBox="0 0 800 500" xmlns="http://www.w3.org/2000/svg">
<rect x="0" y="0" width="800" height="500" fill="#f0f2f5" stroke="#bdc3c7" stroke-width="1" rx="0" ry="0" opacity="1.0" />
<rect x="0" y="0" width="200" height="500" fill="#2c3e50" stroke="none" stroke-width="1" rx="0" ry="0" opacity="1.0" />
<text x="20" y="40" dy="0" font-family="Arial, sans-serif" font-size="18" fill="white" text-anchor="start" font-weight="bold">Global B2B ROI</text>
<text x="20" y="80" dy="0" font-family="Arial, sans-serif" font-size="12" fill="#3498db" text-anchor="start" font-weight="bold">Dashboard</text>
<text x="20" y="110" dy="0" font-family="Arial, sans-serif" font-size="12" fill="#bdc3c7" text-anchor="start" font-weight="normal">Budget Simulator</text>
<text x="20" y="140" dy="0" font-family="Arial, sans-serif" font-size="12" fill="#bdc3c7" text-anchor="start" font-weight="normal">Response Curves</text>
<rect x="220" y="20" width="170" height="80" fill="white" stroke="#ddd" stroke-width="1" rx="4" ry="0" opacity="1.0" />
<text x="230" y="45" dy="0" font-family="Arial, sans-serif" font-size="12" fill="#777" text-anchor="start" font-weight="normal">Total Spend</text>
<text x="230" y="75" dy="0" font-family="Arial, sans-serif" font-size="20" fill="#333" text-anchor="start" font-weight="bold">$12.4M</text>
<rect x="410" y="20" width="170" height="80" fill="white" stroke="#ddd" stroke-width="1" rx="4" ry="0" opacity="1.0" />
<text x="420" y="45" dy="0" font-family="Arial, sans-serif" font-size="12" fill="#777" text-anchor="start" font-weight="normal">Attributed Rev</text>
<text x="420" y="75" dy="0" font-family="Arial, sans-serif" font-size="20" fill="#333" text-anchor="start" font-weight="bold">$64.8M</text>
<rect x="600" y="20" width="170" height="80" fill="white" stroke="#ddd" stroke-width="1" rx="4" ry="0" opacity="1.0" />
<text x="610" y="45" dy="0" font-family="Arial, sans-serif" font-size="12" fill="#777" text-anchor="start" font-weight="normal">Blended ROAS</text>
<text x="610" y="75" dy="0" font-family="Arial, sans-serif" font-size="20" fill="#27ae60" text-anchor="start" font-weight="bold">5.2x</text>
<rect x="220" y="120" width="560" height="200" fill="white" stroke="#ddd" stroke-width="1" rx="4" ry="0" opacity="1.0" />
<text x="240" y="150" dy="0" font-family="Arial, sans-serif" font-size="12" fill="#333" text-anchor="start" font-weight="bold">Revenue vs Spend (YoY)</text>
<line x1="240" y1="280" x2="290" y2="260" stroke="#3498db" stroke-width="2" stroke-dasharray="" />
<line x1="240" y1="200" x2="290" y2="170" stroke="#27ae60" stroke-width="2" stroke-dasharray="" />
<line x1="290" y1="260" x2="340" y2="240" stroke="#3498db" stroke-width="2" stroke-dasharray="" />
<line x1="290" y1="170" x2="340" y2="140" stroke="#27ae60" stroke-width="2" stroke-dasharray="" />
<line x1="340" y1="240" x2="390" y2="280" stroke="#3498db" stroke-width="2" stroke-dasharray="" />
<line x1="340" y1="140" x2="390" y2="110" stroke="#27ae60" stroke-width="2" stroke-dasharray="" />
<line x1="390" y1="280" x2="440" y2="260" stroke="#3498db" stroke-width="2" stroke-dasharray="" />
<line x1="390" y1="110" x2="440" y2="200" stroke="#27ae60" stroke-width="2" stroke-dasharray="" />
<line x1="440" y1="260" x2="490" y2="240" stroke="#3498db" stroke-width="2" stroke-dasharray="" />
<line x1="440" y1="200" x2="490" y2="170" stroke="#27ae60" stroke-width="2" stroke-dasharray="" />
<line x1="490" y1="240" x2="540" y2="280" stroke="#3498db" stroke-width="2" stroke-dasharray="" />
<line x1="490" y1="170" x2="540" y2="140" stroke="#27ae60" stroke-width="2" stroke-dasharray="" />
<line x1="540" y1="280" x2="590" y2="260" stroke="#3498db" stroke-width="2" stroke-dasharray="" />
<line x1="540" y1="140" x2="590" y2="110" stroke="#27ae60" stroke-width="2" stroke-dasharray="" />
<line x1="590" y1="260" x2="640" y2="240" stroke="#3498db" stroke-width="2" stroke-dasharray="" />
<line x1="590" y1="110" x2="640" y2="200" stroke="#27ae60" stroke-width="2" stroke-dasharray="" />
<line x1="640" y1="240" x2="690" y2="280" stroke="#3498db" stroke-width="2" stroke-dasharray="" />
<line x1="640" y1="200" x2="690" y2="170" stroke="#27ae60" stroke-width="2" stroke-dasharray="" />
<rect x="220" y="340" width="560" height="140" fill="white" stroke="#ddd" stroke-width="1" rx="4" ry="0" opacity="1.0" />
<text x="240" y="370" dy="0" font-family="Arial, sans-serif" font-size="12" fill="#333" text-anchor="start" font-weight="bold">Channel ROI Breakdown</text>
<rect x="260" y="350" width="50" height="100" fill="#34495e" stroke="black" stroke-width="1" rx="0" ry="0" opacity="1.0" />
<text x="285" y="465" dy="0" font-family="Arial, sans-serif" font-size="10" fill="#555" text-anchor="middle" font-weight="normal">LinkedIn</text>
<rect x="360" y="330" width="50" height="120" fill="#34495e" stroke="black" stroke-width="1" rx="0" ry="0" opacity="1.0" />
<text x="385" y="465" dy="0" font-family="Arial, sans-serif" font-size="10" fill="#555" text-anchor="middle" font-weight="normal">Search</text>
<rect x="460" y="410" width="50" height="40" fill="#34495e" stroke="black" stroke-width="1" rx="0" ry="0" opacity="1.0" />
<text x="485" y="465" dy="0" font-family="Arial, sans-serif" font-size="10" fill="#555" text-anchor="middle" font-weight="normal">Display</text>
<rect x="560" y="370" width="50" height="80" fill="#34495e" stroke="black" stroke-width="1" rx="0" ry="0" opacity="1.0" />
<text x="585" y="465" dy="0" font-family="Arial, sans-serif" font-size="10" fill="#555" text-anchor="middle" font-weight="normal">Events</text>
<rect x="660" y="390" width="50" height="60" fill="#34495e" stroke="black" stroke-width="1" rx="0" ry="0" opacity="1.0" />
<text x="685" y="465" dy="0" font-family="Arial, sans-serif" font-size="10" fill="#555" text-anchor="middle" font-weight="normal">Social</text>
</svg>